<?xml version="1.0" standalone="no"?>
<!DOCTYPE svg PUBLIC "-//W3C//DTD SVG 20010904//EN"
 "http://www.w3.org/TR/2001/REC-SVG-20010904/DTD/svg10.dtd">
<svg version="1.0" xmlns="http://www.w3.org/2000/svg"
 width="723.000000pt" height="723.000000pt" viewBox="0 0 723.000000 723.000000"
 preserveAspectRatio="xMidYMid meet">
<metadata>
Created by potrace 1.14, written by Peter Selinger 2001-2017
</metadata>
<g transform="translate(0.000000,723.000000) scale(0.100000,-0.100000)"
fill="#000000" stroke="none">
<path d="M562 7008 c116 -174 183 -216 281 -174 42 17 58 36 102 121 20 39 40
74 45 79 24 24 -67 36 -268 36 l-202 0 42 -62z"/>
<path d="M6185 7059 c-7 -11 53 -134 90 -185 23 -30 78 -54 126 -54 33 0 120
42 146 71 12 13 46 59 77 102 l55 77 -244 0 c-160 0 -246 -4 -250 -11z"/>
<path d="M1143 6640 c-50 -7 -66 -20 -88 -67 -40 -83 25 -215 126 -257 91 -38
206 -28 227 19 22 48 15 136 -15 196 -24 46 -36 58 -83 81 -62 30 -106 37
-167 28z"/>
<path d="M5920 6641 c-112 -34 -170 -115 -170 -236 0 -57 3 -69 26 -92 24 -24
30 -25 107 -21 94 5 148 28 192 80 58 68 73 164 35 225 -28 46 -116 66 -190
44z"/>
<path d="M1587 6200 c-62 -12 -72 -29 -72 -123 0 -88 14 -127 64 -180 54 -59
158 -89 245 -73 51 10 68 40 67 121 -1 136 -74 229 -196 250 -22 4 -47 8 -55
10 -8 1 -32 -1 -53 -5z"/>
<path d="M5487 6200 c-96 -17 -166 -77 -193 -167 -23 -75 -18 -147 10 -180 23
-26 29 -28 103 -28 69 0 84 4 133 31 76 43 111 100 118 193 2 38 2 81 -2 95
-12 48 -79 71 -169 56z"/>
<path d="M2023 5719 c-67 -35 -52 -217 24 -293 44 -43 89 -65 152 -73 102 -12
161 36 161 131 0 99 -44 177 -123 218 -49 25 -178 35 -214 17z"/>
<path d="M4967 5714 c-67 -21 -122 -78 -143 -150 -32 -111 5 -193 93 -207 54
-9 128 7 175 39 98 64 133 286 52 323 -34 15 -119 13 -177 -5z"/>
<path d="M2633 5230 c-70 -15 -103 -37 -125 -86 -30 -69 -26 -213 12 -396 56
-272 62 -587 13 -711 -59 -152 -200 -239 -363 -224 -131 12 -205 84 -279 270
-61 152 -117 204 -214 194 -74 -7 -134 -62 -157 -146 -15 -55 -12 -199 8 -318
21 -134 24 -664 4 -867 -10 -97 -13 -378 -11 -1115 1 -742 -2 -997 -11 -1031
-25 -96 -106 -191 -198 -233 -51 -23 -114 -26 -407 -16 -120 3 -133 2 -172
-19 -50 -26 -87 -72 -104 -130 -23 -79 19 -154 110 -195 39 -18 65 -21 181
-21 305 1 677 15 745 29 78 16 137 52 172 103 47 71 48 88 47 1052 0 498 -2
1015 -5 1150 -4 241 -4 246 20 305 35 87 119 168 196 190 151 44 286 -25 357
-184 16 -36 41 -92 56 -124 34 -76 91 -127 199 -179 119 -58 166 -106 231
-239 61 -125 105 -171 184 -193 62 -18 120 -19 573 -14 333 3 341 3 387 26 66
33 109 85 161 194 58 120 101 162 239 234 128 67 158 99 209 226 66 166 120
226 229 254 106 27 203 1 278 -74 95 -95 122 -219 102 -476 -15 -188 -14
-1969 0 -2048 12 -61 42 -121 76 -147 14 -11 51 -30 82 -42 52 -21 81 -23 347
-30 160 -4 335 -11 390 -15 220 -15 356 45 372 164 10 71 -56 160 -138 187
-39 13 -90 15 -291 13 -232 -3 -245 -2 -283 18 -72 39 -132 101 -167 172 l-33
67 3 925 c3 810 1 956 -14 1166 -25 338 -25 762 0 909 22 129 26 273 8 333
-14 48 -61 106 -103 128 -39 20 -108 18 -145 -5 -47 -28 -79 -76 -129 -190
-73 -167 -130 -227 -241 -252 -90 -20 -213 11 -299 77 -43 33 -92 119 -109
194 -28 117 -16 435 24 625 33 161 43 279 30 356 -14 84 -41 120 -106 145 -53
20 -37 20 -859 14 -313 -2 -676 -1 -805 3 -129 3 -254 2 -277 -3z"/>
<path d="M3035 1427 c-43 -20 -92 -79 -107 -129 -9 -30 -12 -92 -9 -208 5
-200 5 -312 0 -535 -4 -162 -3 -172 20 -218 41 -85 130 -129 213 -106 61 16
93 42 120 97 21 42 23 60 23 182 0 74 -1 218 0 320 0 492 2 451 -24 503 -33
68 -79 100 -149 104 -34 2 -69 -2 -87 -10z"/>
<path d="M3995 1426 c-42 -18 -92 -78 -107 -128 -8 -30 -11 -94 -8 -208 4
-205 4 -308 -1 -530 l-4 -175 28 -57 c23 -48 36 -61 79 -82 60 -30 80 -32 139
-11 102 36 135 105 133 280 -2 125 -2 423 0 630 0 136 -10 178 -57 232 -53 60
-133 79 -202 49z"/>
</g>
</svg>
